<?xml version="1.0" encoding="UTF-8"?>
<svg xmlns="http://www.w3.org/2000/svg" xmlns:xlink="http://www.w3.org/1999/xlink" width="2000pt" height="1170pt" viewBox="0 0 2000 1170" version="1.1">
<g id="surface1">
<path style=" stroke:none;fill-rule:nonzero;fill:rgb(0%,65.490196%,89.411765%);fill-opacity:1;" d="M 345.90625 845.398438 C 348.789062 871.023438 319.007812 1050.058594 625.476562 1109.308594 C 928.746094 1167.917969 1306.308594 1013.226562 1306.308594 1013.226562 L 1328.085938 1013.226562 C 1328.085938 1013.226562 996.316406 1177.527344 656.863281 1128.84375 C 317.40625 1080.164062 334.378906 885.113281 333.097656 845.398438 Z M 345.90625 845.398438 "/>
<path style=" stroke:none;fill-rule:nonzero;fill:rgb(0%,65.490196%,89.411765%);fill-opacity:1;" d="M 979.664062 1012.90625 C 979.664062 1012.90625 759.980469 1139.414062 597.617188 1146.78125 C 435.253906 1154.144531 294.988281 1096.816406 337.261719 845.398438 L 324.453125 845.398438 C 324.453125 845.398438 287.945312 1061.585938 413.160156 1127.882812 C 538.371094 1194.179688 701.695312 1199.945312 1052.039062 1012.90625 Z M 979.664062 1012.90625 "/>
<path style=" stroke:none;fill-rule:nonzero;fill:rgb(0%,39.215686%,60%);fill-opacity:1;" d="M 200.839844 479.644531 L 200.839844 601.671875 L 58.972656 601.671875 L 58.972656 479.644531 L 1.328125 479.644531 L 1.328125 754.761719 L 58.652344 754.761719 L 58.652344 626.332031 L 200.519531 626.332031 L 200.519531 724.976562 C 200.394531 730.316406 201.605469 735.597656 204.042969 740.351562 C 206.382812 744.03125 209.566406 747.105469 213.328125 749.316406 C 216.902344 751.363281 220.800781 752.773438 224.855469 753.480469 C 228.457031 754.078125 232.097656 754.398438 235.746094 754.441406 L 257.84375 754.441406 L 257.84375 479.324219 L 200.839844 479.324219 Z M 200.839844 479.644531 "/>
<path style=" stroke:none;fill-rule:nonzero;fill:rgb(0%,39.215686%,60%);fill-opacity:1;" d="M 1323.921875 754.761719 L 1323.921875 479.644531 L 1267.882812 479.644531 L 1155.476562 683.339844 L 1040.832031 479.644531 L 983.828125 479.644531 L 983.828125 754.761719 L 1013.289062 754.761719 L 1013.289062 541.457031 L 1134.019531 754.761719 L 1149.070312 754.761719 L 1266.601562 543.058594 L 1266.601562 724.976562 C 1266.421875 730.359375 1267.75 735.683594 1270.445312 740.351562 C 1272.667969 744.015625 1275.742188 747.09375 1279.410156 749.316406 C 1283.03125 751.503906 1287.066406 752.921875 1291.257812 753.480469 C 1294.964844 754.09375 1298.710938 754.414062 1302.46875 754.441406 L 1323.921875 754.441406 Z M 1323.921875 754.761719 "/>
<path style=" stroke:none;fill-rule:nonzero;fill:rgb(0%,39.215686%,60%);fill-opacity:1;" d="M 1684.515625 754.761719 L 1540.726562 473.558594 L 1524.074219 473.558594 L 1376.761719 754.761719 L 1410.386719 754.761719 L 1456.183594 667.328125 L 1560.582031 667.328125 L 1546.171875 639.144531 L 1470.914062 639.144531 L 1519.269531 546.582031 L 1614.0625 732.664062 C 1617.0625 739.359375 1621.820312 745.113281 1627.832031 749.316406 C 1634.351562 753.03125 1641.792969 754.808594 1649.289062 754.441406 L 1684.515625 754.441406 Z M 1684.515625 754.761719 "/>
<path style=" stroke:none;fill-rule:nonzero;fill:rgb(0%,39.215686%,60%);fill-opacity:1;" d="M 1983.300781 479.644531 C 1981.480469 479.609375 1979.660156 479.71875 1977.855469 479.964844 C 1975.78125 480.230469 1973.800781 481 1972.089844 482.207031 C 1970.1875 483.472656 1968.550781 485.105469 1967.289062 487.011719 C 1965.941406 489.34375 1965.277344 492.007812 1965.367188 494.699219 L 1965.367188 672.132812 L 1774.183594 479.644531 L 1737.355469 479.644531 L 1737.355469 754.761719 L 1770.980469 754.761719 L 1770.980469 547.222656 L 1965.046875 747.714844 C 1973.050781 755.082031 1983.941406 754.441406 1994.507812 754.441406 L 1998.351562 754.441406 L 1998.351562 479.324219 L 1983.300781 479.324219 Z M 1983.300781 479.644531 "/>
<path style=" stroke:none;fill-rule:nonzero;fill:rgb(0%,65.490196%,89.411765%);fill-opacity:1;" d="M 1376.761719 170.257812 C 1248.347656 159.371094 1101.675781 174.742188 1003.683594 194.601562 C 884.234375 218.941406 772.789062 252.570312 667.75 298.6875 C 643.730469 309.257812 620.675781 320.789062 597.9375 332.957031 C 674.101562 275.453125 755.105469 224.660156 840.039062 181.148438 C 1085.34375 56.242188 1342.496094 8.839844 1464.1875 99.476562 C 1495.8125 122.371094 1517.195312 156.753906 1523.753906 195.238281 C 1475.574219 182.664062 1426.390625 174.304688 1376.761719 170.257812 M 552.785156 369.148438 C 552.785156 369.148438 619.714844 331.039062 669.992188 309.898438 C 793.605469 257.375 902.488281 226.628906 1002.722656 207.730469 C 1083.742188 192.359375 1330.328125 153.925781 1525.996094 215.417969 C 1529.199219 260.898438 1516.707031 313.421875 1491.730469 369.46875 L 1572.109375 369.46875 C 1591.964844 328.15625 1605.414062 288.121094 1611.5 250.96875 C 1641.746094 267.015625 1669.472656 287.410156 1693.800781 311.5 C 1716.21875 333.917969 1737.675781 369.46875 1737.675781 369.46875 L 1773.222656 369.46875 C 1760.894531 344.1875 1744.441406 321.132812 1724.542969 301.25 C 1693.480469 269.542969 1655.050781 245.523438 1614.382812 227.269531 C 1620.464844 154.886719 1596.769531 93.390625 1535.921875 51.117188 C 1390.535156 -50.410156 1102.316406 7.878906 836.515625 150.402344 C 723.199219 211.375 617.070312 284.855469 520.117188 369.46875 L 552.785156 369.46875 Z M 552.785156 369.148438 "/>
<path style=" stroke:none;fill-rule:nonzero;fill:rgb(0%,39.215686%,60%);fill-opacity:1;" d="M 476.246094 473.558594 L 459.273438 473.558594 L 311.960938 754.761719 L 345.585938 754.761719 L 454.46875 546.902344 L 501.546875 639.464844 L 425.96875 639.464844 L 411.238281 667.648438 L 515.957031 667.648438 L 548.941406 733.304688 C 551.941406 740 556.699219 745.753906 562.710938 749.957031 C 569.230469 753.671875 576.671875 755.449219 584.167969 755.082031 L 619.394531 755.082031 Z M 476.246094 473.558594 "/>
<path style=" stroke:none;fill-rule:nonzero;fill:rgb(0%,39.215686%,60%);fill-opacity:1;" d="M 731.476562 503.664062 L 731.476562 607.753906 L 758.058594 607.753906 C 758.058594 607.753906 784.316406 608.074219 801.609375 598.46875 C 818.902344 588.859375 830.753906 575.085938 830.753906 554.589844 C 830.523438 534.28125 817.976562 516.152344 799.050781 508.789062 C 789.6875 505.066406 779.65625 503.320312 769.585938 503.664062 Z M 845.804688 732.664062 L 760.941406 628.894531 L 731.476562 628.894531 L 731.476562 754.761719 L 674.15625 754.761719 L 674.15625 479.644531 L 779.515625 479.644531 C 779.515625 479.644531 823.066406 479.003906 851.570312 493.097656 C 880.070312 507.1875 892.238281 527.367188 892.238281 552.667969 C 892.238281 577.96875 876.867188 608.074219 822.425781 623.128906 L 932.269531 754.441406 L 888.394531 754.441406 C 881.539062 754.222656 874.746094 753.035156 868.222656 750.917969 C 857.332031 747.394531 845.804688 732.664062 845.804688 732.664062 "/>
<path style=" stroke:none;fill-rule:nonzero;fill:rgb(0%,0%,0%);fill-opacity:1;" d="M 776.3125 856.929688 L 759.980469 892.800781 L 792.644531 892.800781 Z M 813.140625 923.867188 L 807.054688 923.867188 L 794.886719 897.605469 L 757.738281 897.605469 L 745.570312 923.867188 L 739.484375 923.867188 L 774.710938 847.320312 L 777.914062 847.320312 Z M 813.140625 923.867188 "/>
<path style=" stroke:none;fill-rule:nonzero;fill:rgb(0%,0%,0%);fill-opacity:1;" d="M 1510.304688 859.492188 C 1502.019531 854.726562 1492.640625 852.191406 1483.082031 852.125 C 1464.511719 852.304688 1449.601562 867.503906 1449.777344 886.074219 C 1449.957031 904.648438 1465.152344 919.5625 1483.722656 919.382812 C 1493.300781 919.148438 1502.660156 916.507812 1510.945312 911.699219 L 1510.945312 917.78125 C 1502.691406 922.308594 1493.453125 924.726562 1484.042969 924.828125 C 1460.988281 924.828125 1443.695312 908.175781 1443.695312 885.753906 C 1443.726562 875.234375 1447.984375 865.167969 1455.511719 857.820312 C 1463.042969 850.472656 1473.207031 846.457031 1483.722656 846.679688 C 1493.039062 846.929688 1502.199219 849.109375 1510.625 853.085938 L 1510.625 859.492188 Z M 1510.304688 859.492188 "/>
<path style=" stroke:none;fill-rule:nonzero;fill:rgb(0%,0%,0%);fill-opacity:1;" d="M 1565.386719 852.125 C 1546.855469 852.300781 1531.964844 867.4375 1532.082031 885.964844 C 1532.199219 904.496094 1547.28125 919.441406 1565.8125 919.382812 C 1584.339844 919.324219 1599.328125 904.285156 1599.332031 885.753906 C 1599.3125 876.785156 1595.722656 868.191406 1589.351562 861.882812 C 1582.980469 855.570312 1574.351562 852.058594 1565.386719 852.125 M 1565.066406 924.828125 C 1543.640625 924.144531 1526.761719 906.339844 1527.222656 884.90625 C 1527.679688 863.472656 1545.304688 846.40625 1566.738281 846.640625 C 1588.171875 846.871094 1605.421875 864.320312 1605.414062 885.753906 C 1605.375 896.328125 1601.070312 906.441406 1593.472656 913.796875 C 1585.878906 921.152344 1575.632812 925.132812 1565.066406 924.828125 "/>
<path style=" stroke:none;fill-rule:nonzero;fill:rgb(0%,0%,0%);fill-opacity:1;" d="M 1689.320312 847.640625 L 1695.082031 847.640625 L 1695.082031 923.867188 L 1689.320312 923.867188 L 1689.320312 856.289062 L 1689 856.289062 L 1660.175781 891.839844 L 1631.355469 856.289062 L 1631.035156 856.289062 L 1631.035156 923.867188 L 1625.269531 923.867188 L 1625.269531 847.640625 L 1631.035156 847.640625 L 1660.175781 883.191406 Z M 1689.320312 847.640625 "/>
<path style=" stroke:none;fill-rule:nonzero;fill:rgb(0%,0%,0%);fill-opacity:1;" d="M 1723.90625 883.191406 L 1737.996094 883.191406 C 1752.085938 883.191406 1757.53125 876.46875 1757.53125 867.820312 C 1757.53125 859.171875 1752.085938 852.445312 1738.636719 852.445312 L 1723.90625 852.445312 Z M 1738.957031 847.640625 C 1756.890625 847.640625 1763.933594 856.929688 1763.933594 867.820312 C 1763.933594 877.75 1758.171875 888.316406 1738.636719 888.316406 L 1724.226562 888.316406 L 1724.226562 923.867188 L 1718.460938 923.867188 L 1718.460938 847.640625 Z M 1738.957031 847.640625 "/>
<path style=" stroke:none;fill-rule:nonzero;fill:rgb(0%,0%,0%);fill-opacity:1;" d="M 1799.160156 856.929688 L 1782.828125 892.800781 L 1815.492188 892.800781 Z M 1835.988281 923.867188 L 1829.902344 923.867188 L 1817.734375 897.605469 L 1780.585938 897.605469 L 1768.417969 923.867188 L 1762.332031 923.867188 L 1797.558594 847.320312 L 1800.761719 847.320312 Z M 1835.988281 923.867188 "/>
<path style=" stroke:none;fill-rule:nonzero;fill:rgb(0%,0%,0%);fill-opacity:1;" d="M 1919.25 923.867188 L 1914.449219 923.867188 L 1856.484375 857.25 L 1856.484375 923.867188 L 1850.71875 923.867188 L 1850.71875 847.640625 L 1855.523438 847.640625 L 1913.167969 914.257812 L 1913.167969 847.640625 L 1919.25 847.640625 Z M 1919.25 923.867188 "/>
<path style=" stroke:none;fill-rule:nonzero;fill:rgb(0%,0%,0%);fill-opacity:1;" d="M 1968.886719 882.871094 L 1968.886719 923.867188 L 1963.125 923.867188 L 1963.125 882.871094 L 1933.34375 847.640625 L 1940.707031 847.640625 L 1966.007812 877.75 L 1991.304688 847.640625 L 1998.671875 847.640625 Z M 1968.886719 882.871094 "/>
<path style=" stroke:none;fill-rule:nonzero;fill:rgb(0%,0%,0%);fill-opacity:1;" d="M 895.441406 902.730469 C 896.082031 904.597656 896.082031 906.625 895.441406 908.496094 C 894.792969 911.925781 891.515625 914.203125 888.074219 913.617188 C 886.089844 913.84375 884.105469 913.195312 882.632812 911.84375 C 881.15625 910.492188 880.339844 908.570312 880.390625 906.574219 L 880.390625 899.207031 L 859.894531 899.207031 L 859.894531 904.972656 C 859.894531 922.265625 873.34375 927.390625 887.753906 927.390625 C 901.527344 927.390625 913.054688 922.585938 914.976562 909.777344 C 915.683594 905.640625 915.683594 901.417969 914.976562 897.285156 C 911.773438 881.269531 882.632812 876.46875 880.390625 867.5 C 880.066406 866.128906 880.066406 864.703125 880.390625 863.335938 C 881.035156 860.046875 884.109375 857.8125 887.433594 858.210938 C 889.359375 858.007812 891.273438 858.683594 892.640625 860.050781 C 894.007812 861.421875 894.683594 863.332031 894.480469 865.257812 L 894.480469 870.0625 L 913.695312 870.0625 L 913.695312 864.617188 C 913.695312 847.960938 898.644531 845.398438 887.753906 845.398438 C 873.984375 845.398438 863.097656 849.882812 860.855469 862.375 C 860.167969 865.769531 860.277344 869.277344 861.175781 872.625 C 864.378906 888.316406 891.597656 892.800781 895.441406 902.730469 "/>
<path style=" stroke:none;fill-rule:nonzero;fill:rgb(0%,0%,0%);fill-opacity:1;" d="M 1144.910156 902.730469 C 1145.390625 904.621094 1145.390625 906.601562 1144.910156 908.496094 C 1144.261719 911.925781 1140.984375 914.203125 1137.542969 913.617188 C 1132.738281 913.617188 1129.859375 911.058594 1129.859375 906.894531 L 1129.859375 899.527344 L 1109.363281 899.527344 L 1109.363281 905.292969 C 1109.363281 922.265625 1122.8125 927.390625 1136.902344 927.390625 C 1150.992188 927.390625 1161.882812 922.585938 1163.804688 910.097656 C 1164.5 905.960938 1164.5 901.738281 1163.804688 897.605469 C 1160.601562 881.589844 1131.777344 876.789062 1129.539062 868.140625 C 1129.207031 866.878906 1129.207031 865.554688 1129.539062 864.296875 C 1130.183594 861.007812 1133.253906 858.773438 1136.582031 859.171875 C 1138.507812 858.96875 1140.417969 859.644531 1141.789062 861.011719 C 1143.15625 862.378906 1143.832031 864.292969 1143.628906 866.21875 L 1143.628906 871.023438 L 1162.523438 871.023438 L 1162.523438 864.9375 C 1162.523438 848.28125 1147.792969 845.71875 1136.902344 845.71875 C 1123.453125 845.71875 1112.246094 850.203125 1110.324219 862.695312 C 1109.636719 866.089844 1109.746094 869.597656 1110.644531 872.945312 C 1114.164062 888.316406 1141.066406 892.800781 1144.910156 902.730469 "/>
<path style=" stroke:none;fill-rule:nonzero;fill:rgb(0%,0%,0%);fill-opacity:1;" d="M 1304.390625 909.457031 L 1303.109375 847.640625 L 1322.003906 847.640625 L 1322.003906 923.546875 L 1294.78125 923.546875 L 1275.566406 859.8125 L 1276.527344 923.546875 L 1257.632812 923.546875 L 1257.632812 847.640625 L 1286.136719 847.640625 Z M 1304.390625 909.457031 "/>
<path style=" stroke:none;fill-rule:nonzero;fill:rgb(0%,0%,0%);fill-opacity:1;" d="M 959.167969 853.40625 L 948.601562 924.507812 L 927.785156 924.507812 L 941.875 847.640625 L 976.140625 847.640625 L 990.234375 924.507812 L 969.738281 924.507812 Z M 959.167969 853.40625 "/>
<path style=" stroke:none;fill-rule:nonzero;fill:rgb(0%,0%,0%);fill-opacity:1;" d="M 1071.253906 853.40625 L 1058.125 924.507812 L 1038.589844 924.507812 L 1025.460938 853.40625 L 1024.820312 924.507812 L 1005.605469 924.507812 L 1007.207031 847.640625 L 1038.589844 847.640625 L 1048.195312 907.855469 L 1058.125 847.640625 L 1089.1875 847.640625 L 1091.109375 924.507812 L 1071.574219 924.507812 Z M 1071.253906 853.40625 "/>
<path style=" stroke:none;fill-rule:nonzero;fill:rgb(0%,0%,0%);fill-opacity:1;" d="M 1209.277344 912.980469 C 1212.75 913.265625 1215.898438 910.9375 1216.644531 907.535156 C 1216.90625 906.597656 1217.015625 905.625 1216.964844 904.652344 L 1216.964844 847.960938 L 1236.496094 847.960938 L 1236.496094 908.175781 C 1235.21875 922.585938 1223.6875 927.070312 1209.597656 927.070312 C 1195.507812 927.070312 1184.296875 922.585938 1182.699219 908.175781 C 1182.699219 907.214844 1182.378906 904.652344 1182.378906 903.050781 L 1182.378906 847.960938 L 1201.910156 847.960938 L 1201.910156 904.652344 C 1201.839844 905.625 1201.949219 906.601562 1202.230469 907.535156 C 1202.730469 910.953125 1205.84375 913.359375 1209.277344 912.980469 "/>
<path style=" stroke:none;fill-rule:nonzero;fill:rgb(0%,0%,0%);fill-opacity:1;" d="M 1369.398438 912.339844 C 1373.175781 912.847656 1376.691406 910.316406 1377.402344 906.574219 C 1377.667969 905.636719 1377.777344 904.664062 1377.722656 903.691406 L 1377.722656 892.480469 L 1369.71875 892.480469 L 1369.71875 881.269531 L 1396.9375 881.269531 L 1396.9375 901.769531 C 1396.957031 903.484375 1396.847656 905.195312 1396.617188 906.894531 C 1395.335938 920.984375 1383.167969 925.789062 1369.71875 925.789062 C 1356.269531 925.789062 1344.097656 920.664062 1342.816406 906.894531 C 1342.578125 905.195312 1342.472656 903.484375 1342.496094 901.769531 L 1342.496094 869.421875 C 1342.496094 868.140625 1342.816406 865.578125 1342.816406 864.296875 C 1344.417969 849.882812 1356.269531 845.398438 1369.71875 845.398438 C 1383.167969 845.398438 1395.335938 849.882812 1396.617188 864.296875 C 1396.804688 866 1396.804688 867.71875 1396.617188 869.421875 L 1396.617188 871.984375 L 1377.402344 871.984375 L 1377.402344 867.820312 C 1377.410156 866.851562 1377.304688 865.882812 1377.082031 864.9375 C 1376.277344 861.433594 1372.96875 859.089844 1369.398438 859.492188 C 1365.859375 859.21875 1362.628906 861.507812 1361.710938 864.9375 C 1361.433594 866.089844 1361.324219 867.277344 1361.390625 868.460938 L 1361.390625 903.371094 C 1361.339844 904.34375 1361.449219 905.316406 1361.710938 906.253906 C 1362.179688 910.042969 1365.601562 912.753906 1369.398438 912.339844 "/>
</g>
</svg>
